<?xml version="1.0" encoding="UTF-8" standalone="no"?>
<!DOCTYPE svg PUBLIC "-//W3C//DTD SVG 1.1//EN"
 "http://www.w3.org/Graphics/SVG/1.1/DTD/svg11.dtd">
<!-- Generated by graphviz version 15.1.0 (0)
 -->
<!-- Title: AST Pages: 1 -->
<svg width="605pt" height="585pt"
 viewBox="0.00 0.00 605.00 585.00" xmlns="http://www.w3.org/2000/svg" xmlns:xlink="http://www.w3.org/1999/xlink">
<g id="graph0" class="graph" transform="scale(1 1) rotate(0) translate(4 580.5)">
<title>AST</title>
<polygon fill="white" stroke="none" points="-4,4 -4,-580.5 600.75,-580.5 600.75,4 -4,4"/>
<!-- n1 -->
<g id="node1" class="node">
<title>n1</title>
<polygon fill="none" stroke="black" points="207,-576.5 133.25,-576.5 133.25,-540.5 207,-540.5 207,-576.5"/>
<text xml:space="preserve" text-anchor="middle" x="170.12" y="-554.95" font-family="monospace" font-size="14.00">Program</text>
</g>
<!-- n2 -->
<g id="node2" class="node">
<title>n2</title>
<polygon fill="none" stroke="black" points="90.25,-485 0,-485 0,-418.5 90.25,-418.5 90.25,-485"/>
<text xml:space="preserve" text-anchor="middle" x="45.12" y="-467.7" font-family="monospace" font-size="14.00">Decl</text>
<text xml:space="preserve" text-anchor="middle" x="45.12" y="-448.2" font-family="monospace" font-size="14.00">&quot;value&quot;</text>
<text xml:space="preserve" text-anchor="middle" x="45.12" y="-428.7" font-family="monospace" font-size="14.00">:type int</text>
</g>
<!-- n1&#45;&gt;n2 -->
<g id="edge1" class="edge">
<title>n1&#45;&gt;n2</title>
<path fill="none" stroke="black" d="M141.36,-540.14C133.14,-534.8 124.33,-528.68 116.62,-522.5 105.53,-513.59 94.19,-503.23 83.92,-493.26"/>
<polygon fill="black" stroke="black" points="86.59,-490.97 77.01,-486.44 81.67,-495.96 86.59,-490.97"/>
<text xml:space="preserve" text-anchor="middle" x="141.38" y="-509.2" font-family="monospace" font-size="14.00">top[0]</text>
</g>
<!-- n3 -->
<g id="node3" class="node">
<title>n3</title>
<polygon fill="none" stroke="black" points="231.75,-485 108.5,-485 108.5,-418.5 231.75,-418.5 231.75,-485"/>
<text xml:space="preserve" text-anchor="middle" x="170.12" y="-467.7" font-family="monospace" font-size="14.00">FuncDef</text>
<text xml:space="preserve" text-anchor="middle" x="170.12" y="-448.2" font-family="monospace" font-size="14.00">&quot;read_global&quot;</text>
<text xml:space="preserve" text-anchor="middle" x="170.12" y="-428.7" font-family="monospace" font-size="14.00">:type int</text>
</g>
<!-- n1&#45;&gt;n3 -->
<g id="edge2" class="edge">
<title>n1&#45;&gt;n3</title>
<path fill="none" stroke="black" d="M170.12,-540.2C170.12,-528.35 170.12,-512.06 170.12,-496.75"/>
<polygon fill="black" stroke="black" points="173.63,-496.83 170.13,-486.83 166.63,-496.83 173.63,-496.83"/>
<text xml:space="preserve" text-anchor="middle" x="194.88" y="-509.2" font-family="monospace" font-size="14.00">top[1]</text>
</g>
<!-- n7 -->
<g id="node7" class="node">
<title>n7</title>
<polygon fill="none" stroke="black" points="346.25,-485 256,-485 256,-418.5 346.25,-418.5 346.25,-485"/>
<text xml:space="preserve" text-anchor="middle" x="301.12" y="-467.7" font-family="monospace" font-size="14.00">FuncDef</text>
<text xml:space="preserve" text-anchor="middle" x="301.12" y="-448.2" font-family="monospace" font-size="14.00">&quot;main&quot;</text>
<text xml:space="preserve" text-anchor="middle" x="301.12" y="-428.7" font-family="monospace" font-size="14.00">:type int</text>
</g>
<!-- n1&#45;&gt;n7 -->
<g id="edge6" class="edge">
<title>n1&#45;&gt;n7</title>
<path fill="none" stroke="black" d="M198.16,-540.08C206.38,-534.68 215.26,-528.56 223.12,-522.5 234.93,-513.4 247.19,-502.96 258.39,-492.98"/>
<polygon fill="black" stroke="black" points="260.52,-495.78 265.6,-486.49 255.83,-490.58 260.52,-495.78"/>
<text xml:space="preserve" text-anchor="middle" x="270.13" y="-509.2" font-family="monospace" font-size="14.00">top[2]</text>
</g>
<!-- n4 -->
<g id="node4" class="node">
<title>n4</title>
<polygon fill="none" stroke="black" points="167.75,-363 110.5,-363 110.5,-327 167.75,-327 167.75,-363"/>
<text xml:space="preserve" text-anchor="middle" x="139.12" y="-341.45" font-family="monospace" font-size="14.00">Block</text>
</g>
<!-- n3&#45;&gt;n4 -->
<g id="edge3" class="edge">
<title>n3&#45;&gt;n4</title>
<path fill="none" stroke="black" d="M160.49,-418.18C156.29,-404.01 151.43,-387.57 147.4,-373.97"/>
<polygon fill="black" stroke="black" points="150.87,-373.36 144.68,-364.77 144.16,-375.35 150.87,-373.36"/>
<text xml:space="preserve" text-anchor="middle" x="171.12" y="-387.2" font-family="monospace" font-size="14.00">body</text>
</g>
<!-- n5 -->
<g id="node5" class="node">
<title>n5</title>
<polygon fill="none" stroke="black" points="161.88,-256.25 96.38,-256.25 96.38,-220.25 161.88,-220.25 161.88,-256.25"/>
<text xml:space="preserve" text-anchor="middle" x="129.12" y="-234.7" font-family="monospace" font-size="14.00">Return</text>
</g>
<!-- n4&#45;&gt;n5 -->
<g id="edge4" class="edge">
<title>n4&#45;&gt;n5</title>
<path fill="none" stroke="black" d="M137.47,-326.7C135.95,-310.71 133.65,-286.63 131.85,-267.79"/>
<polygon fill="black" stroke="black" points="135.36,-267.7 130.92,-258.08 128.39,-268.37 135.36,-267.7"/>
<text xml:space="preserve" text-anchor="middle" x="168.6" y="-295.7" font-family="monospace" font-size="14.00">stmts[0]</text>
</g>
<!-- n6 -->
<g id="node6" class="node">
<title>n6</title>
<polygon fill="none" stroke="black" points="166,-149.5 92.25,-149.5 92.25,-102.5 166,-102.5 166,-149.5"/>
<text xml:space="preserve" text-anchor="middle" x="129.12" y="-132.2" font-family="monospace" font-size="14.00">Var</text>
<text xml:space="preserve" text-anchor="middle" x="129.12" y="-112.7" font-family="monospace" font-size="14.00">&quot;value&quot;</text>
</g>
<!-- n5&#45;&gt;n6 -->
<g id="edge5" class="edge">
<title>n5&#45;&gt;n6</title>
<path fill="none" stroke="black" d="M129.12,-220.02C129.12,-204.38 129.12,-180.83 129.12,-161.35"/>
<polygon fill="black" stroke="black" points="132.63,-161.36 129.13,-151.36 125.63,-161.36 132.63,-161.36"/>
<text xml:space="preserve" text-anchor="middle" x="158" y="-173.7" font-family="monospace" font-size="14.00">operand</text>
</g>
<!-- n8 -->
<g id="node8" class="node">
<title>n8</title>
<polygon fill="none" stroke="black" points="347.75,-363 290.5,-363 290.5,-327 347.75,-327 347.75,-363"/>
<text xml:space="preserve" text-anchor="middle" x="319.12" y="-341.45" font-family="monospace" font-size="14.00">Block</text>
</g>
<!-- n7&#45;&gt;n8 -->
<g id="edge7" class="edge">
<title>n7&#45;&gt;n8</title>
<path fill="none" stroke="black" d="M306.72,-418.18C309.13,-404.15 311.92,-387.9 314.25,-374.37"/>
<polygon fill="black" stroke="black" points="317.65,-375.25 315.89,-364.81 310.75,-374.07 317.65,-375.25"/>
<text xml:space="preserve" text-anchor="middle" x="329.29" y="-387.2" font-family="monospace" font-size="14.00">body</text>
</g>
<!-- n9 -->
<g id="node9" class="node">
<title>n9</title>
<polygon fill="none" stroke="black" points="270.25,-271.5 180,-271.5 180,-205 270.25,-205 270.25,-271.5"/>
<text xml:space="preserve" text-anchor="middle" x="225.12" y="-254.2" font-family="monospace" font-size="14.00">Decl</text>
<text xml:space="preserve" text-anchor="middle" x="225.12" y="-234.7" font-family="monospace" font-size="14.00">&quot;value&quot;</text>
<text xml:space="preserve" text-anchor="middle" x="225.12" y="-215.2" font-family="monospace" font-size="14.00">:type int</text>
</g>
<!-- n8&#45;&gt;n9 -->
<g id="edge8" class="edge">
<title>n8&#45;&gt;n9</title>
<path fill="none" stroke="black" d="M290.19,-333.94C277.43,-328.28 263.1,-320.09 253.12,-309 246.28,-301.39 241,-291.89 236.97,-282.37"/>
<polygon fill="black" stroke="black" points="240.28,-281.25 233.47,-273.14 233.74,-283.73 240.28,-281.25"/>
<text xml:space="preserve" text-anchor="middle" x="286.12" y="-295.7" font-family="monospace" font-size="14.00">stmts[0]</text>
</g>
<!-- n10 -->
<g id="node10" class="node">
<title>n10</title>
<polygon fill="none" stroke="black" points="370.12,-256.25 288.12,-256.25 288.12,-220.25 370.12,-220.25 370.12,-256.25"/>
<text xml:space="preserve" text-anchor="middle" x="329.12" y="-234.7" font-family="monospace" font-size="14.00">ExprStmt</text>
</g>
<!-- n8&#45;&gt;n10 -->
<g id="edge9" class="edge">
<title>n8&#45;&gt;n10</title>
<path fill="none" stroke="black" d="M320.78,-326.7C322.3,-310.71 324.6,-286.63 326.4,-267.79"/>
<polygon fill="black" stroke="black" points="329.86,-268.37 327.33,-258.08 322.89,-267.7 329.86,-268.37"/>
<text xml:space="preserve" text-anchor="middle" x="357.12" y="-295.7" font-family="monospace" font-size="14.00">stmts[1]</text>
</g>
<!-- n14 -->
<g id="node14" class="node">
<title>n14</title>
<polygon fill="none" stroke="black" points="453.88,-256.25 388.38,-256.25 388.38,-220.25 453.88,-220.25 453.88,-256.25"/>
<text xml:space="preserve" text-anchor="middle" x="421.12" y="-234.7" font-family="monospace" font-size="14.00">Return</text>
</g>
<!-- n8&#45;&gt;n14 -->
<g id="edge13" class="edge">
<title>n8&#45;&gt;n14</title>
<path fill="none" stroke="black" d="M348.22,-335.91C363.3,-330.44 381.04,-321.83 393.12,-309 403.89,-297.57 410.72,-281.48 414.94,-267.63"/>
<polygon fill="black" stroke="black" points="418.27,-268.71 417.5,-258.14 411.51,-266.88 418.27,-268.71"/>
<text xml:space="preserve" text-anchor="middle" x="438.79" y="-295.7" font-family="monospace" font-size="14.00">stmts[2]</text>
</g>
<!-- n11 -->
<g id="node11" class="node">
<title>n11</title>
<polygon fill="none" stroke="black" points="361.88,-144 296.38,-144 296.38,-108 361.88,-108 361.88,-144"/>
<text xml:space="preserve" text-anchor="middle" x="329.12" y="-122.45" font-family="monospace" font-size="14.00">Assign</text>
</g>
<!-- n10&#45;&gt;n11 -->
<g id="edge10" class="edge">
<title>n10&#45;&gt;n11</title>
<path fill="none" stroke="black" d="M329.12,-220.02C329.12,-202.89 329.12,-176.29 329.12,-155.92"/>
<polygon fill="black" stroke="black" points="332.63,-155.98 329.13,-145.98 325.63,-155.98 332.63,-155.98"/>
<text xml:space="preserve" text-anchor="middle" x="358" y="-173.7" font-family="monospace" font-size="14.00">operand</text>
</g>
<!-- n12 -->
<g id="node12" class="node">
<title>n12</title>
<polygon fill="none" stroke="black" points="286,-47 212.25,-47 212.25,0 286,0 286,-47"/>
<text xml:space="preserve" text-anchor="middle" x="249.12" y="-29.7" font-family="monospace" font-size="14.00">Var</text>
<text xml:space="preserve" text-anchor="middle" x="249.12" y="-10.2" font-family="monospace" font-size="14.00">&quot;value&quot;</text>
</g>
<!-- n11&#45;&gt;n12 -->
<g id="edge11" class="edge">
<title>n11&#45;&gt;n12</title>
<path fill="none" stroke="black" d="M315.55,-107.95C304.24,-93.74 287.82,-73.12 274.14,-55.93"/>
<polygon fill="black" stroke="black" points="277.19,-54.13 268.22,-48.49 271.71,-58.49 277.19,-54.13"/>
<text xml:space="preserve" text-anchor="middle" x="308.67" y="-71.2" font-family="monospace" font-size="14.00">lhs</text>
</g>
<!-- n13 -->
<g id="node13" class="node">
<title>n13</title>
<polygon fill="none" stroke="black" points="358.12,-47 304.12,-47 304.12,0 358.12,0 358.12,-47"/>
<text xml:space="preserve" text-anchor="middle" x="331.12" y="-29.7" font-family="monospace" font-size="14.00">Num</text>
<text xml:space="preserve" text-anchor="middle" x="331.12" y="-10.2" font-family="monospace" font-size="14.00">5</text>
</g>
<!-- n11&#45;&gt;n13 -->
<g id="edge12" class="edge">
<title>n11&#45;&gt;n13</title>
<path fill="none" stroke="black" d="M329.46,-107.95C329.73,-94.52 330.11,-75.37 330.44,-58.79"/>
<polygon fill="black" stroke="black" points="333.94,-58.88 330.64,-48.82 326.94,-58.74 333.94,-58.88"/>
<text xml:space="preserve" text-anchor="middle" x="342.68" y="-71.2" font-family="monospace" font-size="14.00">rhs</text>
</g>
<!-- n15 -->
<g id="node15" class="node">
<title>n15</title>
<polygon fill="none" stroke="black" points="448.12,-144 394.12,-144 394.12,-108 448.12,-108 448.12,-144"/>
<text xml:space="preserve" text-anchor="middle" x="421.12" y="-122.45" font-family="monospace" font-size="14.00">Add</text>
</g>
<!-- n14&#45;&gt;n15 -->
<g id="edge14" class="edge">
<title>n14&#45;&gt;n15</title>
<path fill="none" stroke="black" d="M421.12,-220.02C421.12,-202.89 421.12,-176.29 421.12,-155.92"/>
<polygon fill="black" stroke="black" points="424.63,-155.98 421.13,-145.98 417.63,-155.98 424.63,-155.98"/>
<text xml:space="preserve" text-anchor="middle" x="450" y="-173.7" font-family="monospace" font-size="14.00">operand</text>
</g>
<!-- n16 -->
<g id="node16" class="node">
<title>n16</title>
<polygon fill="none" stroke="black" points="455,-47 381.25,-47 381.25,0 455,0 455,-47"/>
<text xml:space="preserve" text-anchor="middle" x="418.12" y="-29.7" font-family="monospace" font-size="14.00">Var</text>
<text xml:space="preserve" text-anchor="middle" x="418.12" y="-10.2" font-family="monospace" font-size="14.00">&quot;value&quot;</text>
</g>
<!-- n15&#45;&gt;n16 -->
<g id="edge15" class="edge">
<title>n15&#45;&gt;n16</title>
<path fill="none" stroke="black" d="M420.62,-107.95C420.22,-94.52 419.64,-75.37 419.15,-58.79"/>
<polygon fill="black" stroke="black" points="422.65,-58.71 418.85,-48.82 415.65,-58.92 422.65,-58.71"/>
<text xml:space="preserve" text-anchor="middle" x="432.27" y="-71.2" font-family="monospace" font-size="14.00">lhs</text>
</g>
<!-- n17 -->
<g id="node17" class="node">
<title>n17</title>
<polygon fill="none" stroke="black" points="596.75,-47 473.5,-47 473.5,0 596.75,0 596.75,-47"/>
<text xml:space="preserve" text-anchor="middle" x="535.12" y="-29.7" font-family="monospace" font-size="14.00">Call</text>
<text xml:space="preserve" text-anchor="middle" x="535.12" y="-10.2" font-family="monospace" font-size="14.00">&quot;read_global&quot;</text>
</g>
<!-- n15&#45;&gt;n17 -->
<g id="edge16" class="edge">
<title>n15&#45;&gt;n17</title>
<path fill="none" stroke="black" d="M440.72,-107.72C457.25,-93.15 481.28,-71.97 500.96,-54.62"/>
<polygon fill="black" stroke="black" points="503.06,-57.44 508.24,-48.2 498.43,-52.19 503.06,-57.44"/>
<text xml:space="preserve" text-anchor="middle" x="500.71" y="-71.2" font-family="monospace" font-size="14.00">rhs</text>
</g>
</g>
</svg>
